<svg xmlns="http://www.w3.org/2000/svg" width="1490" height="460" viewBox="0 0 1490 460">
<g>
<path d="M 74.00 189.11 L 73.50 262.50 L 49.93 262.77 C36.97,262.91 26.06,262.73 25.68,262.35 C25.31,261.97 25.00,210.66 25.00,148.32 L 25.00 34.97 L 79.20 35.50 L 97.91 65.50 C108.20,82.00 121.33,103.10 127.09,112.39 C132.85,121.67 137.97,129.32 138.46,129.39 C138.95,129.45 152.52,108.35 168.61,82.50 L 197.86 35.50 L 225.44 35.23 L 253.01 34.97 L 252.50 262.50 L 203.50 262.50 L 203.24 189.25 C203.09,144.92 202.62,116.00 202.06,116.00 C201.54,116.00 198.54,119.94 195.37,124.75 C184.06,141.95 142.79,204.56 140.67,207.74 C139.47,209.53 138.22,210.99 137.87,210.99 C137.52,211.00 133.77,205.71 129.54,199.25 C125.31,192.79 111.20,171.35 98.18,151.61 L 74.50 115.73 ZM 810.00 278.00 L 810.00 315.00 L 786.17 315.00 C773.06,315.00 762.03,314.70 761.67,314.33 C761.30,313.97 761.00,262.89 761.00,200.83 L 761.00 88.00 L 810.00 88.00 L 810.05 100.25 L 810.09 112.50 L 815.30 106.92 C830.80,90.28 846.11,84.16 869.42,85.26 C888.44,86.16 903.02,92.35 916.78,105.36 C929.49,117.39 937.22,131.42 941.65,150.50 C944.52,162.88 944.24,190.34 941.12,202.50 C931.99,238.11 907.31,260.92 873.25,265.23 C852.43,267.87 830.71,260.53 816.54,246.07 C813.81,243.28 811.22,241.00 810.79,241.00 C810.35,241.00 810.00,257.65 810.00,278.00 ZM 520.25 208.25 L 519.90 263.00 L 471.00 263.00 L 471.00 88.00 L 520.00 88.00 L 520.00 111.91 L 528.25 103.60 C534.84,96.96 538.21,94.45 545.00,91.14 C554.85,86.33 560.93,84.99 572.89,85.01 C582.98,85.03 591.99,86.95 599.22,90.61 C606.82,94.46 615.72,103.30 620.46,111.71 C620.53,111.82 623.71,108.96 627.54,105.35 C635.79,97.58 645.14,91.80 655.19,88.28 C664.91,84.87 682.80,83.98 694.22,86.35 C717.22,91.10 731.78,107.42 735.95,133.10 C736.58,137.03 736.99,163.37 736.99,201.27 L 737.00 263.04 L 712.75 262.77 L 688.50 262.50 L 687.94 208.50 C687.36,152.45 687.28,151.42 682.92,142.86 C680.44,137.98 673.54,132.22 668.55,130.88 C662.43,129.22 649.30,130.24 644.50,132.74 C639.11,135.55 634.58,140.46 631.80,146.50 C629.51,151.48 629.50,151.70 629.00,207.00 L 628.50 262.50 L 579.50 262.50 L 578.96 207.50 C578.56,167.83 578.07,151.47 577.18,148.82 C574.85,141.87 569.85,135.76 564.00,132.70 C558.84,130.00 557.90,129.84 548.87,130.19 C540.27,130.52 538.72,130.88 534.37,133.56 C529.22,136.73 523.89,143.64 521.82,149.82 C520.93,152.50 520.50,168.42 520.25,208.25 ZM 1017.00 212.83 L 1017.00 263.00 L 993.17 263.00 C980.06,263.00 969.03,262.70 968.67,262.33 C968.30,261.97 968.00,208.42 968.00,143.33 L 968.00 25.00 L 1017.00 25.00 L 1017.00 112.15 L 1025.25 103.75 C1034.45,94.38 1045.10,88.16 1055.71,85.96 C1064.88,84.05 1082.99,85.21 1091.18,88.23 C1107.77,94.36 1117.60,104.64 1123.53,122.08 C1127.64,134.16 1128.11,143.39 1127.79,205.00 L 1127.50 262.50 L 1078.50 262.50 L 1077.96 207.50 C1077.39,148.75 1077.44,149.23 1072.09,140.80 C1067.56,133.65 1061.66,130.70 1050.93,130.18 C1032.22,129.29 1021.24,137.96 1018.13,156.08 C1017.39,160.38 1017.00,180.09 1017.00,212.83 ZM 376.92 265.96 C371.35,266.53 366.50,266.94 366.14,266.86 C365.79,266.79 361.67,266.36 357.00,265.91 C329.67,263.26 304.48,248.73 290.97,227.84 C279.59,210.23 275.31,193.63 276.30,171.00 C276.95,156.20 279.36,145.97 284.97,134.24 C293.98,115.40 306.85,102.07 324.70,93.13 C336.77,87.08 344.60,85.52 363.00,85.53 C382.35,85.53 387.70,86.64 401.84,93.59 C418.05,101.55 432.12,117.31 439.04,135.27 C444.71,149.95 446.30,158.86 446.40,176.50 L 446.50 192.50 L 385.83 192.76 L 325.17 193.02 L 326.20 196.76 C330.59,212.72 343.31,223.45 361.06,226.15 C376.99,228.57 394.73,222.83 407.24,211.19 L 409.99 208.64 L 412.24 210.64 C413.48,211.75 419.79,217.29 426.25,222.97 C432.71,228.65 438.00,233.58 438.00,233.93 C438.00,235.13 423.46,248.76 419.00,251.73 C407.26,259.56 393.31,264.28 376.92,265.96 ZM 1423.00 262.92 C1413.31,265.38 1395.05,266.39 1385.21,265.00 C1365.60,262.23 1342.44,252.92 1327.27,241.71 L 1324.05 239.32 L 1334.12 223.91 C1339.66,215.44 1344.59,208.08 1345.07,207.57 C1345.61,207.01 1346.65,207.25 1347.73,208.18 C1350.99,211.00 1363.42,217.89 1370.50,220.79 C1397.55,231.87 1421.00,229.10 1421.00,214.82 C1421.00,206.30 1416.52,203.30 1393.00,196.05 C1364.16,187.17 1356.02,183.29 1346.17,173.69 C1334.70,162.53 1330.54,146.27 1334.44,127.87 C1337.77,112.16 1348.69,99.13 1364.50,92.00 C1387.27,81.72 1419.53,83.83 1447.50,97.42 C1455.40,101.26 1459.40,102.66 1460.27,105.15 C1461.07,107.42 1459.28,110.60 1455.48,117.32 C1454.69,118.72 1453.82,120.27 1452.86,122.00 C1447.84,131.07 1443.61,138.64 1443.47,138.81 C1443.32,138.99 1439.67,137.35 1435.35,135.18 C1421.67,128.30 1410.59,124.84 1400.35,124.26 C1388.64,123.59 1384.79,124.36 1381.04,128.11 C1378.61,130.54 1378.00,132.01 1378.00,135.38 C1378.00,138.85 1378.58,140.16 1381.25,142.69 C1385.65,146.87 1388.90,148.39 1406.63,154.56 C1415.00,157.48 1424.50,160.93 1427.73,162.24 C1455.26,173.36 1467.55,190.22 1465.59,214.21 C1463.50,239.77 1449.07,256.28 1423.00,262.92 ZM 1254.76 228.25 L 1254.50 314.50 L 1230.93 314.77 C1217.97,314.91 1207.06,314.73 1206.68,314.35 C1206.31,313.97 1206.00,275.04 1206.00,227.83 L 1206.00 142.00 L 1255.01 142.00 ZM 841.35 222.10 C851.94,225.13 861.10,224.10 871.24,218.76 C897.65,204.84 902.83,160.69 880.65,138.52 C877.82,135.69 872.80,132.05 869.50,130.44 C863.97,127.73 862.64,127.50 852.50,127.50 C842.50,127.50 840.93,127.76 835.30,130.36 C831.12,132.29 827.18,135.24 823.24,139.36 C813.68,149.38 810.03,159.20 810.01,175.02 C809.98,199.09 821.52,216.42 841.35,222.10 ZM 1255.00 25.00 L 1255.00 73.00 L 1206.00 73.00 L 1206.00 25.00 ZM 325.36 157.41 L 324.73 162.00 L 361.31 162.00 C383.29,162.00 398.12,161.62 398.47,161.05 C399.37,159.59 397.05,151.17 393.87,144.35 C390.33,136.78 382.11,128.91 375.36,126.61 C368.34,124.21 355.48,124.47 348.32,127.15 C337.68,131.13 327.04,145.16 325.36,157.41 Z" fill="rgb(41,87,162)"/>
<path d="M 1190.98 232.25 C1190.99,238.71 1190.66,243.96 1190.25,243.92 C1189.46,243.83 1158.23,225.74 1153.68,222.73 L 1151.00 220.95 L 1151.00 130.23 L 1159.75 125.29 C1167.76,120.76 1192.20,106.69 1219.24,91.06 L 1229.97 84.85 L 1236.24 88.26 C1239.68,90.13 1245.20,93.25 1248.50,95.20 C1255.80,99.51 1275.54,110.93 1294.75,121.96 L 1309.00 130.15 L 1309.00 221.68 L 1289.52 232.84 C1278.80,238.98 1269.80,244.00 1269.52,244.00 C1269.23,244.00 1269.00,238.86 1269.00,232.58 L 1269.00 221.17 L 1278.75 215.33 L 1288.50 209.50 L 1288.76 175.97 L 1289.03 142.44 L 1283.76 139.33 C1278.12,135.99 1261.65,126.45 1242.92,115.67 C1236.55,112.00 1230.83,109.00 1230.21,109.00 C1229.58,109.00 1223.31,112.32 1216.28,116.38 C1209.25,120.44 1196.53,127.80 1188.00,132.73 L 1172.50 141.70 L 1172.50 210.30 L 1181.73 215.40 L 1190.97 220.50 ZM 833.45 432.13 C828.33,434.39 820.88,435.26 816.43,434.12 C813.11,433.26 807.00,429.94 807.00,428.98 C807.00,428.66 808.58,426.87 810.50,425.00 L 814.00 421.61 L 817.41 424.92 C819.93,427.36 822.01,428.36 825.30,428.73 C829.33,429.18 830.13,428.90 833.40,425.87 C837.25,422.29 840.24,415.19 841.44,406.75 L 842.12 402.00 L 838.56 402.00 C836.60,402.00 835.00,401.62 835.00,401.15 C835.00,399.66 838.43,397.19 841.00,396.84 C843.32,396.53 843.66,395.73 845.71,386.00 L 845.76 385.76 C847.73,376.46 848.26,373.94 847.38,373.26 C847.05,373.01 846.52,373.01 845.80,373.02 L 845.75 373.02 C838.81,373.09 831.56,379.79 830.34,387.26 C829.91,389.92 828.95,391.06 825.65,392.81 C820.10,395.75 819.67,395.62 820.45,391.25 C822.49,379.92 829.68,372.78 842.50,369.36 C847.51,368.02 860.00,367.48 860.00,368.60 C860.00,368.92 858.84,375.06 857.42,382.24 C855.30,392.94 855.07,395.44 856.17,396.19 C856.90,396.70 860.42,396.86 864.00,396.56 C867.58,396.26 872.58,396.01 875.11,396.01 L 879.73 396.00 L 881.44 387.36 C885.15,368.67 893.90,358.21 907.34,356.37 C909.82,356.03 913.47,356.05 915.46,356.43 L 919.07 357.10 L 916.85 361.05 C914.36,365.49 914.15,365.58 911.44,363.53 C909.09,361.75 903.10,361.61 900.90,363.28 C900.03,363.95 898.61,365.85 897.76,367.50 C895.32,372.23 886.72,412.72 886.60,420.00 L 886.50 426.50 L 891.31 426.81 C895.57,427.08 896.09,427.36 895.81,429.24 C895.53,431.13 894.24,431.58 884.18,433.28 C877.95,434.33 872.66,434.99 872.42,434.75 C872.18,434.51 873.34,427.61 874.99,419.41 C876.64,411.21 877.99,403.94 878.00,403.25 C878.00,402.32 874.88,402.00 865.74,402.00 L 853.47 402.00 L 852.27 407.08 C849.57,418.42 842.17,428.27 833.45,432.13 ZM 171.37 431.13 C168.24,434.34 166.99,434.96 164.05,434.79 C162.10,434.67 155.66,434.43 149.75,434.25 C143.84,434.08 139.00,433.65 139.00,433.31 C139.00,432.97 140.87,430.96 143.17,428.85 C146.23,426.02 148.20,425.00 150.59,425.00 C156.90,425.00 157.95,422.53 163.44,394.76 C167.44,374.59 167.55,373.48 165.77,373.17 C162.71,372.64 154.68,377.23 152.25,380.90 C151.01,382.77 150.00,385.71 150.00,387.45 C150.00,390.20 149.42,390.88 145.47,392.80 C142.98,394.01 140.73,395.00 140.47,395.00 C139.19,395.00 140.28,388.94 142.36,384.48 C145.50,377.73 149.86,373.60 156.76,370.84 C161.90,368.78 164.17,368.54 178.50,368.52 C196.67,368.50 200.51,369.50 203.97,375.19 C206.91,380.01 206.55,384.67 202.75,391.00 C197.18,400.28 187.10,406.00 176.32,406.00 C173.54,406.00 172.00,406.44 171.99,407.25 C171.97,409.69 167.22,418.68 164.03,422.32 L 160.79 426.00 L 166.31 426.00 C175.17,426.00 175.78,426.62 171.37,431.13 ZM 969.62 433.51 C965.26,435.34 963.26,435.33 959.89,433.50 C947.89,426.98 958.88,397.47 976.65,388.46 C981.92,385.79 983.62,385.47 993.79,385.16 L 1005.08 384.83 L 1004.46 387.66 C1004.11,389.22 1003.61,391.17 1003.34,392.00 C1002.16,395.63 997.00,422.59 997.00,425.16 C997.00,429.52 999.99,428.77 1006.59,422.75 L 1012.34 417.50 L 1011.68 421.00 C1010.46,427.50 997.67,436.14 991.56,434.60 C987.03,433.47 985.55,429.81 986.65,422.47 C987.17,418.95 987.51,416.16 987.40,416.28 C987.29,416.40 985.47,418.80 983.35,421.62 C978.72,427.78 974.40,431.52 969.62,433.51 ZM 523.08 431.45 C512.75,437.97 503.97,433.90 504.01,422.60 C504.06,410.15 514.74,393.70 526.50,387.97 C530.69,385.93 533.35,385.47 542.90,385.15 L 554.29 384.77 L 553.64 387.14 C552.07,392.86 546.00,423.37 546.00,425.57 C546.00,429.32 549.34,428.63 554.77,423.75 C557.37,421.41 559.83,419.05 560.23,418.50 C560.64,417.95 560.98,418.72 560.98,420.22 C561.01,423.92 556.08,429.28 549.76,432.43 C543.64,435.48 541.01,435.64 537.94,433.15 C535.43,431.12 534.99,427.53 536.31,420.04 L 537.09 415.58 L 532.00 422.31 C529.20,426.01 525.19,430.12 523.08,431.45 ZM 1214.79 433.10 C1210.42,435.34 1207.47,435.45 1203.89,433.50 C1194.84,428.58 1199.06,407.81 1211.67,395.20 C1219.19,387.68 1224.17,385.70 1236.83,385.18 C1242.52,384.95 1247.58,385.18 1248.07,385.67 C1248.62,386.22 1248.57,387.97 1247.95,390.04 C1246.19,395.93 1241.00,422.15 1241.00,425.16 C1241.00,429.52 1243.99,428.77 1250.59,422.75 L 1256.34 417.50 L 1255.68 421.00 C1254.46,427.50 1241.67,436.14 1235.56,434.60 C1234.16,434.25 1232.28,432.84 1231.38,431.46 C1229.99,429.33 1229.89,427.98 1230.75,422.72 C1231.31,419.30 1231.66,416.38 1231.53,416.23 C1231.40,416.08 1230.12,417.73 1228.70,419.88 C1225.18,425.20 1219.28,430.80 1214.79,433.10 ZM 227.50 431.09 C220.78,435.79 214.77,435.76 210.50,431.01 C208.90,429.23 208.51,427.43 208.56,421.98 C208.60,416.24 209.18,414.03 212.24,407.84 C216.60,399.02 222.99,392.07 230.19,388.35 C234.86,385.93 236.87,385.54 246.89,385.18 L 258.28 384.78 L 257.76 387.14 C253.89,405.04 250.00,424.54 250.00,426.07 C250.00,429.31 253.47,428.32 259.17,423.44 C264.10,419.21 264.52,419.04 264.84,421.06 C265.62,426.18 251.30,435.88 244.99,434.50 C240.38,433.48 239.65,431.80 240.28,423.53 L 240.84 416.10 L 236.17 422.20 C233.60,425.55 229.70,429.55 227.50,431.09 ZM 754.64 431.47 C744.12,436.61 736.33,435.42 731.17,427.90 C729.13,424.93 728.88,423.55 729.18,417.00 C729.60,408.05 732.05,402.39 738.72,394.96 C744.52,388.52 751.71,384.79 758.64,384.62 C764.29,384.49 767.60,386.24 771.44,391.39 C774.61,395.64 774.31,406.67 770.82,414.18 C767.37,421.58 761.05,428.34 754.64,431.47 ZM 412.71 431.43 C402.48,436.43 394.68,435.47 389.53,428.58 C386.45,424.45 386.63,411.27 389.86,404.71 C393.11,398.12 400.84,389.94 406.49,387.11 C415.80,382.46 423.91,383.97 429.44,391.39 C432.59,395.61 432.31,406.69 428.87,414.00 C425.33,421.51 418.97,428.38 412.71,431.43 ZM 1133.33 432.97 C1127.54,435.70 1123.84,435.46 1121.25,432.19 C1119.43,429.90 1119.77,425.19 1122.88,409.50 C1124.41,401.80 1125.46,394.94 1125.22,394.25 C1124.21,391.34 1120.11,393.10 1115.09,398.59 C1107.51,406.89 1102.22,416.41 1100.43,425.02 C1099.59,429.05 1098.67,432.72 1098.39,433.18 C1098.11,433.63 1095.61,434.00 1092.83,434.00 C1087.82,434.00 1087.79,433.98 1088.50,431.25 C1088.89,429.74 1091.38,418.08 1094.03,405.34 C1099.35,379.77 1101.81,373.21 1108.65,366.32 C1114.83,360.10 1120.15,357.74 1129.00,357.28 C1138.93,356.77 1140.57,357.87 1136.28,362.17 C1133.09,365.37 1133.04,365.39 1128.19,364.14 C1124.03,363.08 1122.72,363.13 1119.35,364.48 C1114.98,366.22 1112.65,369.46 1110.49,376.74 C1108.73,382.66 1104.91,402.24 1105.40,402.74 C1105.61,402.94 1106.71,401.58 1107.87,399.72 C1111.39,394.01 1120.34,386.26 1124.76,385.06 C1131.64,383.21 1136.00,386.21 1136.00,392.78 C1136.00,394.38 1134.65,402.35 1133.00,410.50 C1131.35,418.65 1130.00,425.92 1130.00,426.66 C1130.00,429.26 1133.88,427.95 1139.34,423.50 C1142.38,421.02 1145.08,419.00 1145.34,419.00 C1145.60,419.00 1145.57,420.01 1145.27,421.25 C1144.48,424.56 1138.28,430.65 1133.33,432.97 ZM 486.17 433.97 C481.21,435.35 479.83,435.27 477.22,433.44 C474.28,431.38 474.34,427.07 477.52,411.00 C478.88,404.12 479.99,397.26 480.00,395.75 C480.01,388.58 470.50,395.77 461.60,409.66 C458.09,415.15 456.60,418.78 455.26,425.16 L 453.50 433.50 L 448.25 433.80 C442.48,434.13 442.30,433.90 444.01,427.99 C445.44,423.02 451.00,395.10 451.00,392.87 C451.00,389.48 447.06,390.83 441.44,396.15 L 436.00 401.29 L 436.00 398.22 C436.00,392.48 449.37,383.32 455.87,384.62 C460.68,385.59 461.36,387.11 460.71,395.61 L 460.14 403.17 L 464.08 397.89 C470.91,388.74 478.99,383.35 484.29,384.41 C491.60,385.87 492.09,389.30 487.97,410.48 C486.20,419.61 485.01,427.34 485.33,427.66 C486.57,428.91 490.70,426.90 494.83,423.04 C499.87,418.34 500.90,418.05 500.24,421.51 C499.60,424.87 490.76,432.69 486.17,433.97 ZM 1342.00 429.77 C1327.32,437.15 1318.69,436.19 1313.82,426.65 C1309.87,418.90 1312.82,405.81 1320.70,396.20 C1326.93,388.59 1337.89,383.00 1343.72,384.47 C1351.60,386.44 1353.62,396.41 1347.71,404.16 C1343.84,409.24 1335.64,413.78 1328.45,414.83 L 1323.50 415.56 L 1323.60 419.95 C1323.80,428.96 1331.12,430.47 1343.51,424.06 L 1351.12 420.12 L 1350.81 422.81 C1350.55,425.08 1349.18,426.16 1342.00,429.77 ZM 630.51 433.00 C623.36,435.46 620.64,435.48 615.50,433.11 C609.79,430.49 607.57,426.15 607.65,417.76 C607.70,412.32 608.31,409.81 610.83,404.69 C615.22,395.78 623.89,387.67 631.35,385.50 C637.47,383.72 640.29,384.12 643.70,387.24 C648.32,391.46 647.44,400.12 641.81,405.88 C637.51,410.28 629.97,413.98 623.83,414.71 C620.86,415.06 618.60,415.88 618.28,416.72 C617.37,419.09 619.93,425.89 622.19,427.10 C625.43,428.84 632.49,427.41 639.81,423.52 C643.42,421.60 646.49,420.16 646.64,420.31 C646.80,420.46 646.67,421.56 646.35,422.76 C645.63,425.51 638.07,430.39 630.51,433.00 ZM 935.98 429.76 C924.64,435.45 916.49,436.13 911.28,431.82 C908.71,429.69 906.05,422.84 906.02,418.30 C905.99,411.73 910.13,401.73 915.48,395.47 C921.22,388.75 928.35,384.85 935.26,384.64 C939.49,384.52 940.50,384.89 942.58,387.31 C945.43,390.61 945.87,397.42 943.54,401.93 C940.35,408.09 931.25,413.60 922.57,414.62 C917.23,415.25 917.00,415.40 917.00,418.19 C917.00,422.38 919.64,426.87 922.52,427.60 C926.95,428.71 931.67,427.17 945.18,420.23 C945.55,420.04 945.54,421.14 945.16,422.69 C944.58,424.97 942.87,426.30 935.98,429.76 ZM 1030.63 433.51 C1028.67,434.33 1026.13,435.00 1024.99,435.00 C1022.12,435.00 1018.00,430.62 1018.00,427.56 C1018.00,423.13 1025.89,385.71 1028.03,380.00 C1031.90,369.65 1039.50,361.72 1048.70,358.44 C1052.78,356.99 1062.30,356.67 1065.40,357.89 C1067.17,358.58 1067.08,358.87 1064.25,362.05 C1061.20,365.46 1061.19,365.46 1056.55,364.23 C1048.22,362.00 1042.49,364.95 1039.61,372.97 C1037.30,379.38 1028.07,425.02 1028.73,426.74 C1029.62,429.07 1032.50,428.03 1037.68,423.50 C1040.51,421.02 1043.09,419.00 1043.41,419.00 C1043.74,419.00 1044.00,420.08 1044.00,421.41 C1044.00,424.20 1036.35,431.12 1030.63,433.51 ZM 705.10 433.63 C700.44,435.29 698.11,435.25 694.81,433.46 C690.50,431.12 690.41,426.13 694.33,407.27 C696.18,398.34 697.47,390.80 697.18,390.52 C696.90,390.23 694.64,390.00 692.16,390.00 L 687.65 390.00 L 690.00 387.50 C691.57,385.83 693.43,385.00 695.59,385.00 C695.78,385.00 695.95,385.00 696.11,385.00 C697.01,385.01 697.62,385.02 698.07,384.76 C699.09,384.18 699.37,382.30 700.54,376.19 C701.01,373.73 701.72,373.25 706.29,372.30 C709.15,371.70 711.57,371.28 711.65,371.36 C711.73,371.44 711.22,374.54 710.52,378.25 L 709.24 385.00 L 715.87 385.02 C724.33,385.03 725.82,385.89 722.63,388.88 C720.49,390.89 719.60,391.05 714.26,390.45 C708.54,389.80 708.25,389.88 707.71,392.14 C705.13,403.07 701.93,421.63 702.19,424.26 C702.45,426.98 702.87,427.46 704.82,427.25 C706.10,427.11 709.10,425.65 711.50,424.00 C716.74,420.39 717.00,420.36 717.00,423.33 C717.00,426.09 710.54,431.68 705.10,433.63 ZM 1068.95 432.01 C1061.82,435.67 1055.31,435.31 1053.07,431.12 C1051.36,427.93 1051.80,422.29 1055.00,406.50 C1056.65,398.35 1058.00,391.31 1058.00,390.84 C1058.00,390.38 1055.67,390.00 1052.83,390.00 L 1047.65 390.00 L 1049.95 387.55 C1051.37,386.04 1053.61,384.99 1055.83,384.80 C1059.30,384.51 1059.43,384.35 1060.45,379.06 L 1061.50 373.61 L 1066.47 372.36 C1069.20,371.66 1071.60,371.27 1071.81,371.48 C1072.02,371.69 1071.70,374.17 1071.10,376.98 C1071.03,377.29 1070.97,377.60 1070.90,377.89 C1070.14,381.39 1069.76,383.17 1070.48,384.08 C1071.22,385.01 1073.13,385.01 1077.03,385.00 C1077.34,385.00 1077.66,385.00 1078.00,385.00 C1082.40,385.00 1086.00,385.37 1086.00,385.83 C1086.00,386.28 1084.96,387.63 1083.68,388.83 C1081.72,390.67 1080.37,390.97 1074.94,390.75 L 1068.51 390.50 L 1065.32 406.00 C1061.71,423.59 1061.42,426.84 1063.41,427.60 C1065.02,428.22 1069.96,425.87 1074.81,422.19 L 1078.12 419.67 L 1077.43 422.59 C1076.55,426.28 1073.49,429.69 1068.95,432.01 ZM 585.50 432.55 C576.22,437.06 570.00,434.44 570.00,426.00 C570.00,424.27 571.35,416.10 573.00,407.84 C574.65,399.57 576.00,392.18 576.00,391.41 C576.00,390.40 574.68,390.00 571.38,390.00 C566.81,390.00 566.77,389.97 568.24,387.75 C569.21,386.28 571.07,385.33 573.57,385.00 C577.31,384.51 577.45,384.35 578.79,378.85 C580.08,373.54 580.39,373.15 583.66,372.54 C585.57,372.18 587.85,371.61 588.72,371.28 C590.37,370.64 590.31,373.17 588.45,381.75 L 587.75 385.00 L 593.62 385.01 C596.86,385.02 600.54,385.30 601.80,385.64 L 604.10 386.26 L 601.83 388.69 C599.73,390.92 599.06,391.06 593.34,390.45 L 587.14 389.78 L 586.15 393.64 C585.60,395.76 583.91,403.92 582.39,411.77 C578.84,430.10 579.67,431.20 591.07,423.36 L 596.20 419.83 L 595.48 423.10 C594.62,427.00 592.22,429.27 585.50,432.55 ZM 1276.38 425.40 L 1274.69 434.00 L 1269.28 434.00 C1264.60,434.00 1263.93,433.76 1264.37,432.25 C1265.39,428.75 1269.93,407.33 1271.05,400.74 C1272.96,389.61 1270.87,388.23 1263.10,395.50 C1260.46,397.98 1258.00,400.00 1257.65,400.00 C1257.29,400.00 1257.00,398.91 1257.00,397.58 C1257.00,393.37 1269.99,384.00 1275.82,384.00 C1277.02,384.00 1278.96,384.96 1280.12,386.12 C1282.02,388.02 1282.19,389.06 1281.76,395.86 C1281.30,403.06 1281.36,403.34 1282.82,400.99 C1283.68,399.62 1287.10,395.79 1290.44,392.47 C1297.19,385.75 1302.87,383.24 1307.40,384.96 C1310.62,386.19 1310.62,386.32 1307.29,390.94 C1304.77,394.45 1304.31,394.68 1300.46,394.24 C1296.88,393.84 1295.83,394.21 1292.65,397.00 C1290.63,398.78 1286.52,403.95 1283.52,408.51 C1278.90,415.52 1277.81,418.11 1276.38,425.40 ZM 1176.51 431.54 C1168.59,435.04 1162.47,435.63 1158.07,433.31 C1152.55,430.40 1150.62,426.89 1150.17,419.00 C1149.83,412.91 1150.15,411.29 1152.80,405.61 C1158.83,392.72 1169.61,384.68 1180.84,384.68 C1183.95,384.68 1187.69,385.18 1189.15,385.78 L 1191.81 386.88 L 1190.28 392.94 C1188.99,398.06 1188.41,399.00 1186.55,399.00 C1184.70,399.00 1184.41,398.55 1184.76,396.16 C1185.33,392.31 1182.82,390.00 1178.08,390.00 C1169.34,390.00 1162.32,399.67 1161.31,413.11 C1160.14,428.62 1166.72,431.84 1182.50,423.46 C1188.42,420.32 1189.00,420.19 1189.00,421.96 C1189.00,424.41 1184.08,428.19 1176.51,431.54 ZM 283.70 433.84 C281.18,434.48 278.08,434.97 276.81,434.93 C274.40,434.86 265.26,432.60 264.57,431.90 C264.35,431.68 265.51,429.99 267.15,428.16 L 270.14 424.81 L 275.20 426.99 C281.10,429.53 286.12,429.09 288.40,425.84 C290.41,422.97 289.11,420.00 282.86,413.15 C276.44,406.13 274.54,402.25 275.37,397.86 C276.45,392.16 283.32,386.13 290.50,384.60 C293.28,384.01 302.49,385.16 303.57,386.23 C303.83,386.49 303.54,389.02 302.94,391.85 C302.08,395.88 301.42,397.00 299.92,397.00 C298.72,397.00 298.00,396.31 298.00,395.15 C298.00,392.41 294.77,390.00 291.11,390.00 C286.11,390.00 284.00,391.58 284.00,395.32 C284.00,397.85 285.44,400.30 290.51,406.40 C297.43,414.72 298.63,417.35 297.53,421.75 C296.46,426.01 289.04,432.50 283.70,433.84 ZM 325.72 433.38 C323.08,434.27 319.71,434.97 318.22,434.93 C315.39,434.86 306.32,432.65 305.50,431.83 C305.24,431.57 306.52,429.92 308.34,428.15 L 311.65 424.94 L 316.08 426.95 C322.90,430.05 327.66,429.37 330.01,424.98 C331.35,422.47 330.19,420.17 324.21,413.50 C318.44,407.06 315.51,401.09 316.39,397.60 C316.75,396.14 318.67,393.16 320.65,390.97 C325.55,385.54 332.92,383.30 340.14,385.03 L 345.18 386.24 L 344.54 389.87 C343.46,395.98 342.94,397.00 340.93,397.00 C339.55,397.00 339.00,396.30 339.00,394.54 C339.00,391.58 336.44,390.00 331.64,390.00 C323.30,390.00 322.80,396.77 330.52,405.00 C335.81,410.64 339.00,416.05 338.99,419.39 C338.98,425.22 333.86,430.61 325.72,433.38 ZM 399.99 425.75 C404.08,432.46 413.04,428.69 417.62,418.33 C421.99,408.44 421.67,393.50 417.03,391.02 C413.01,388.87 409.80,389.83 405.45,394.50 C398.40,402.07 395.54,418.45 399.99,425.75 ZM 741.99 425.75 C743.60,428.38 744.61,429.00 747.35,429.00 C753.64,429.00 758.80,422.85 761.56,412.06 C763.54,404.32 762.75,394.75 759.89,391.89 C754.85,386.85 746.20,392.42 742.15,403.29 C739.29,410.98 739.22,421.20 741.99,425.75 ZM 371.33 432.97 C366.16,435.40 363.20,435.53 360.22,433.44 C357.39,431.46 357.32,427.19 359.93,414.16 C363.22,397.75 363.45,395.11 361.62,394.41 C360.74,394.07 358.60,394.29 356.85,394.90 C353.14,396.19 352.90,396.08 353.61,393.40 C354.01,391.86 356.55,390.59 364.32,388.05 C369.92,386.22 375.03,384.53 375.68,384.28 C376.54,383.96 376.45,385.57 375.37,390.17 C373.18,399.41 368.00,425.09 368.00,426.66 C368.00,429.38 371.99,427.86 377.96,422.87 C383.93,417.89 384.08,417.82 383.43,420.62 C382.52,424.48 376.65,430.48 371.33,432.97 ZM 516.20 425.80 C516.79,426.39 517.12,426.75 517.51,426.85 C518.09,427.01 518.80,426.64 520.67,425.67 L 521.02 425.49 C524.31,423.79 531.78,415.17 536.90,407.16 C539.15,403.65 540.46,400.22 540.77,397.07 C541.19,392.71 541.02,392.24 538.86,391.66 C534.32,390.44 528.82,390.99 526.10,392.93 C518.97,398.00 511.89,421.49 516.20,425.80 ZM 220.04 425.07 C220.60,426.13 221.39,427.00 221.79,427.00 C223.94,426.99 229.52,422.32 234.28,416.55 C240.73,408.73 244.53,401.89 245.32,396.70 C245.83,393.32 245.61,392.80 243.38,391.95 C239.12,390.34 233.83,390.86 230.36,393.24 C223.43,397.98 216.68,418.80 220.04,425.07 ZM 1211.73 425.87 C1214.31,427.31 1218.44,424.52 1224.49,417.24 C1231.14,409.24 1234.85,402.40 1235.63,396.69 L 1236.25 392.16 L 1231.72 391.48 C1225.89,390.61 1221.77,391.54 1219.24,394.30 C1212.23,401.96 1207.15,423.31 1211.73,425.87 ZM 967.20 425.80 C968.75,427.35 968.99,427.32 972.17,425.23 C978.02,421.37 989.23,406.43 990.97,400.18 C992.90,393.24 992.49,392.20 987.59,391.46 C979.16,390.20 975.32,392.32 971.22,400.50 C966.58,409.78 964.47,423.07 967.20,425.80 ZM 173.04 401.61 C173.00,402.76 178.34,401.86 184.25,399.74 C190.44,397.52 195.92,387.46 194.49,380.94 C193.64,377.07 188.99,373.34 183.97,372.49 C181.71,372.11 179.61,372.06 179.30,372.37 C178.77,372.90 173.14,399.23 173.04,401.61 ZM 917.59 410.14 C917.77,410.44 917.87,410.66 918.03,410.78 C918.42,411.07 919.19,410.84 922.43,409.87 C922.79,409.77 923.17,409.65 923.60,409.53 C931.98,407.04 937.93,398.47 935.03,393.06 C933.84,390.84 930.12,390.33 927.06,391.97 C923.26,394.00 916.10,407.74 917.59,410.14 ZM 619.00 408.52 C619.00,410.66 619.23,410.74 623.11,409.87 C631.85,407.90 636.99,402.94 637.00,396.45 C637.00,392.69 635.42,391.00 631.92,391.00 C627.17,391.00 619.00,402.08 619.00,408.52 ZM 1323.54 407.75 C1322.74,411.47 1322.90,411.52 1329.61,409.52 C1335.26,407.85 1339.61,403.86 1340.97,399.11 C1343.26,391.10 1336.69,387.91 1330.83,394.19 C1327.36,397.90 1324.53,403.16 1323.54,407.75 ZM 380.88 368.07 C379.17,372.01 378.05,373.04 372.46,375.80 C365.75,379.10 365.00,378.84 367.47,374.06 C368.75,371.59 381.62,362.29 382.52,363.18 C382.70,363.37 381.96,365.56 380.88,368.07 Z" fill="rgb(235,123,68)"/>
</g>
</svg>